<svg xmlns="http://www.w3.org/2000/svg" width="1920" height="347" viewBox="0 0 1920 347"><defs><clipPath id="clip-path"><path id="Differenzmenge_3" data-name="Differenzmenge 3" class="cls-1" d="M1920 1084H0V825.786l228.35-81.478a125.641 125.641 0 0176.094-2.657l1115.8 318.135a128.986 128.986 0 0099.6-12.184L1920 817.878z" transform="translate(-13860 570)"/></clipPath><style>.cls-1{fill:#fff}</style></defs><g id="Gruppe_maskieren_2" data-name="Gruppe maskieren 2" transform="translate(13860 -1307)" clip-path="url(#clip-path)"><path id="Differenzmenge_5" data-name="Differenzmenge 5" class="cls-1" d="M1920 1084H0V825.786l228.35-81.478a125.641 125.641 0 0176.094-2.657l1115.8 318.135a128.986 128.986 0 0099.6-12.184L1920 817.878z" transform="translate(-13860 570)"/><path id="Pfad_24566" data-name="Pfad 24566" d="M767.309 0H342.4a129.959 129.959 0 00-112.537 64.969L17.409 432.951a129.952 129.952 0 000 129.946L229.86 930.884a129.953 129.953 0 00112.54 64.964h424.909a129.939 129.939 0 00112.535-64.969L1092.3 562.9a129.958 129.958 0 000-129.946L879.841 64.974A129.944 129.944 0 00767.309 0z" transform="rotate(-99 -6207.767 6646.31)" fill="#f8b02f"/><path id="Pfad_24565" data-name="Pfad 24565" d="M767.309 0H342.4a129.959 129.959 0 00-112.537 64.969L17.409 432.951a129.952 129.952 0 000 129.946L229.86 930.884a129.953 129.953 0 00112.54 64.964h424.909a129.939 129.939 0 00112.535-64.969L1092.3 562.9a129.958 129.958 0 000-129.946L879.841 64.974A129.944 129.944 0 00767.309 0z" transform="rotate(-103 -5625.149 5884.565)" fill="#263238"/></g></svg>